<svg xmlns="http://www.w3.org/2000/svg" viewBox="0 0 700 320" width="100%" role="img"><rect x="0" y="0" width="700" height="320" rx="14" fill="#ffffff"/><text x="20.0" y="30.0" font-family="'Malgun Gothic','Pretendard','Noto Sans KR',sans-serif" font-size="14" fill="#2a2620" text-anchor="start" font-weight="700">사전 통계수준별 효과 (5점 척도)</text><line x1="60" y1="255.0" x2="660" y2="255.0" stroke="#e8e1d3" stroke-width="1"/><text x="50.0" y="259.0" font-family="'Malgun Gothic','Pretendard','Noto Sans KR',sans-serif" font-size="10" fill="#8a8275" text-anchor="end" font-weight="400">0</text><line x1="60" y1="215.0" x2="660" y2="215.0" stroke="#e8e1d3" stroke-width="1"/><text x="50.0" y="219.0" font-family="'Malgun Gothic','Pretendard','Noto Sans KR',sans-serif" font-size="10" fill="#8a8275" text-anchor="end" font-weight="400">1</text><line x1="60" y1="175.0" x2="660" y2="175.0" stroke="#e8e1d3" stroke-width="1"/><text x="50.0" y="179.0" font-family="'Malgun Gothic','Pretendard','Noto Sans KR',sans-serif" font-size="10" fill="#8a8275" text-anchor="end" font-weight="400">2</text><line x1="60" y1="135.0" x2="660" y2="135.0" stroke="#e8e1d3" stroke-width="1"/><text x="50.0" y="139.0" font-family="'Malgun Gothic','Pretendard','Noto Sans KR',sans-serif" font-size="10" fill="#8a8275" text-anchor="end" font-weight="400">3</text><line x1="60" y1="95.0" x2="660" y2="95.0" stroke="#e8e1d3" stroke-width="1"/><text x="50.0" y="99.0" font-family="'Malgun Gothic','Pretendard','Noto Sans KR',sans-serif" font-size="10" fill="#8a8275" text-anchor="end" font-weight="400">4</text><line x1="60" y1="55.0" x2="660" y2="55.0" stroke="#e8e1d3" stroke-width="1"/><text x="50.0" y="59.0" font-family="'Malgun Gothic','Pretendard','Noto Sans KR',sans-serif" font-size="10" fill="#8a8275" text-anchor="end" font-weight="400">5</text><rect x="85.0" y="72.1" width="30" height="182.9" rx="4" fill="#b88a5e"/><text x="100.0" y="67.1" font-family="'Malgun Gothic','Pretendard','Noto Sans KR',sans-serif" font-size="10" fill="#2a2620" text-anchor="middle" font-weight="700">4.6</text><rect x="120.0" y="68.3" width="30" height="186.7" rx="4" fill="#5a7d6b"/><text x="135.0" y="63.3" font-family="'Malgun Gothic','Pretendard','Noto Sans KR',sans-serif" font-size="10" fill="#2a2620" text-anchor="middle" font-weight="700">4.7</text><rect x="155.0" y="95.0" width="30" height="160.0" rx="4" fill="#4a6b85"/><text x="170.0" y="90.0" font-family="'Malgun Gothic','Pretendard','Noto Sans KR',sans-serif" font-size="10" fill="#2a2620" text-anchor="middle" font-weight="700">4.0</text><text x="135.0" y="275.0" font-family="'Malgun Gothic','Pretendard','Noto Sans KR',sans-serif" font-size="11.5" fill="#2a2620" text-anchor="middle" font-weight="600">수준 1 (n=3)</text><rect x="235.0" y="84.2" width="30" height="170.8" rx="4" fill="#b88a5e"/><text x="250.0" y="79.2" font-family="'Malgun Gothic','Pretendard','Noto Sans KR',sans-serif" font-size="10" fill="#2a2620" text-anchor="middle" font-weight="700">4.3</text><rect x="270.0" y="80.2" width="30" height="174.8" rx="4" fill="#5a7d6b"/><text x="285.0" y="75.2" font-family="'Malgun Gothic','Pretendard','Noto Sans KR',sans-serif" font-size="10" fill="#2a2620" text-anchor="middle" font-weight="700">4.4</text><rect x="305.0" y="86.1" width="30" height="168.9" rx="4" fill="#4a6b85"/><text x="320.0" y="81.1" font-family="'Malgun Gothic','Pretendard','Noto Sans KR',sans-serif" font-size="10" fill="#2a2620" text-anchor="middle" font-weight="700">4.2</text><text x="285.0" y="275.0" font-family="'Malgun Gothic','Pretendard','Noto Sans KR',sans-serif" font-size="11.5" fill="#2a2620" text-anchor="middle" font-weight="600">수준 2 (n=9)</text><rect x="385.0" y="86.5" width="30" height="168.5" rx="4" fill="#b88a5e"/><text x="400.0" y="81.5" font-family="'Malgun Gothic','Pretendard','Noto Sans KR',sans-serif" font-size="10" fill="#2a2620" text-anchor="middle" font-weight="700">4.2</text><rect x="420.0" y="85.5" width="30" height="169.5" rx="4" fill="#5a7d6b"/><text x="435.0" y="80.5" font-family="'Malgun Gothic','Pretendard','Noto Sans KR',sans-serif" font-size="10" fill="#2a2620" text-anchor="middle" font-weight="700">4.2</text><rect x="455.0" y="83.6" width="30" height="171.4" rx="4" fill="#4a6b85"/><text x="470.0" y="78.6" font-family="'Malgun Gothic','Pretendard','Noto Sans KR',sans-serif" font-size="10" fill="#2a2620" text-anchor="middle" font-weight="700">4.3</text><text x="435.0" y="275.0" font-family="'Malgun Gothic','Pretendard','Noto Sans KR',sans-serif" font-size="11.5" fill="#2a2620" text-anchor="middle" font-weight="600">수준 3 (n=7)</text><rect x="535.0" y="93.1" width="30" height="161.9" rx="4" fill="#b88a5e"/><text x="550.0" y="88.1" font-family="'Malgun Gothic','Pretendard','Noto Sans KR',sans-serif" font-size="10" fill="#2a2620" text-anchor="middle" font-weight="700">4.0</text><rect x="570.0" y="103.9" width="30" height="151.1" rx="4" fill="#5a7d6b"/><text x="585.0" y="98.9" font-family="'Malgun Gothic','Pretendard','Noto Sans KR',sans-serif" font-size="10" fill="#2a2620" text-anchor="middle" font-weight="700">3.8</text><rect x="605.0" y="101.7" width="30" height="153.3" rx="4" fill="#4a6b85"/><text x="620.0" y="96.7" font-family="'Malgun Gothic','Pretendard','Noto Sans KR',sans-serif" font-size="10" fill="#2a2620" text-anchor="middle" font-weight="700">3.8</text><text x="585.0" y="275.0" font-family="'Malgun Gothic','Pretendard','Noto Sans KR',sans-serif" font-size="11.5" fill="#2a2620" text-anchor="middle" font-weight="600">수준 4 (n=3)</text><rect x="210" y="292" width="13" height="13" rx="3" fill="#b88a5e"/><text x="229.0" y="303.0" font-family="'Malgun Gothic','Pretendard','Noto Sans KR',sans-serif" font-size="12" fill="#8a8275" text-anchor="start" font-weight="400">종합</text><rect x="330" y="292" width="13" height="13" rx="3" fill="#5a7d6b"/><text x="349.0" y="303.0" font-family="'Malgun Gothic','Pretendard','Noto Sans KR',sans-serif" font-size="12" fill="#8a8275" text-anchor="start" font-weight="400">학습효과</text><rect x="450" y="292" width="13" height="13" rx="3" fill="#4a6b85"/><text x="469.0" y="303.0" font-family="'Malgun Gothic','Pretendard','Noto Sans KR',sans-serif" font-size="12" fill="#8a8275" text-anchor="start" font-weight="400">정확성</text></svg>