<svg xmlns="http://www.w3.org/2000/svg" viewBox="0 0 700 320" width="100%" role="img"><rect x="0" y="0" width="700" height="320" rx="14" fill="#ffffff"/><text x="20.0" y="30.0" font-family="'Malgun Gothic','Pretendard','Noto Sans KR',sans-serif" font-size="14" fill="#2a2620" text-anchor="start" font-weight="700">사전 통계수준별 효과 (5점 척도) · 예시</text><line x1="60" y1="255.0" x2="650" y2="255.0" stroke="#e8e1d3" stroke-width="1"/><text x="50.0" y="259.0" font-family="'Malgun Gothic','Pretendard','Noto Sans KR',sans-serif" font-size="10" fill="#8a8275" text-anchor="end" font-weight="400">0</text><line x1="60" y1="215.0" x2="650" y2="215.0" stroke="#e8e1d3" stroke-width="1"/><text x="50.0" y="219.0" font-family="'Malgun Gothic','Pretendard','Noto Sans KR',sans-serif" font-size="10" fill="#8a8275" text-anchor="end" font-weight="400">1</text><line x1="60" y1="175.0" x2="650" y2="175.0" stroke="#e8e1d3" stroke-width="1"/><text x="50.0" y="179.0" font-family="'Malgun Gothic','Pretendard','Noto Sans KR',sans-serif" font-size="10" fill="#8a8275" text-anchor="end" font-weight="400">2</text><line x1="60" y1="135.0" x2="650" y2="135.0" stroke="#e8e1d3" stroke-width="1"/><text x="50.0" y="139.0" font-family="'Malgun Gothic','Pretendard','Noto Sans KR',sans-serif" font-size="10" fill="#8a8275" text-anchor="end" font-weight="400">3</text><line x1="60" y1="95.0" x2="650" y2="95.0" stroke="#e8e1d3" stroke-width="1"/><text x="50.0" y="99.0" font-family="'Malgun Gothic','Pretendard','Noto Sans KR',sans-serif" font-size="10" fill="#8a8275" text-anchor="end" font-weight="400">4</text><line x1="60" y1="55.0" x2="650" y2="55.0" stroke="#e8e1d3" stroke-width="1"/><text x="50.0" y="59.0" font-family="'Malgun Gothic','Pretendard','Noto Sans KR',sans-serif" font-size="10" fill="#8a8275" text-anchor="end" font-weight="400">5</text><rect x="119.0" y="111.0" width="40" height="144.0" rx="4" fill="#b88a5e"/><text x="139.0" y="106.0" font-family="'Malgun Gothic','Pretendard','Noto Sans KR',sans-serif" font-size="10.5" fill="#2a2620" text-anchor="middle" font-weight="700">3.6</text><rect x="165.0" y="115.0" width="40" height="140.0" rx="4" fill="#5a7d6b"/><text x="185.0" y="110.0" font-family="'Malgun Gothic','Pretendard','Noto Sans KR',sans-serif" font-size="10.5" fill="#2a2620" text-anchor="middle" font-weight="700">3.5</text><rect x="211.0" y="99.0" width="40" height="156.0" rx="4" fill="#4a6b85"/><text x="231.0" y="94.0" font-family="'Malgun Gothic','Pretendard','Noto Sans KR',sans-serif" font-size="10.5" fill="#2a2620" text-anchor="middle" font-weight="700">3.9</text><text x="185.0" y="275.0" font-family="'Malgun Gothic','Pretendard','Noto Sans KR',sans-serif" font-size="12" fill="#2a2620" text-anchor="middle" font-weight="600">사전수준 하</text><rect x="289.0" y="95.0" width="40" height="160.0" rx="4" fill="#b88a5e"/><text x="309.0" y="90.0" font-family="'Malgun Gothic','Pretendard','Noto Sans KR',sans-serif" font-size="10.5" fill="#2a2620" text-anchor="middle" font-weight="700">4.0</text><rect x="335.0" y="99.0" width="40" height="156.0" rx="4" fill="#5a7d6b"/><text x="355.0" y="94.0" font-family="'Malgun Gothic','Pretendard','Noto Sans KR',sans-serif" font-size="10.5" fill="#2a2620" text-anchor="middle" font-weight="700">3.9</text><rect x="381.0" y="91.0" width="40" height="164.0" rx="4" fill="#4a6b85"/><text x="401.0" y="86.0" font-family="'Malgun Gothic','Pretendard','Noto Sans KR',sans-serif" font-size="10.5" fill="#2a2620" text-anchor="middle" font-weight="700">4.1</text><text x="355.0" y="275.0" font-family="'Malgun Gothic','Pretendard','Noto Sans KR',sans-serif" font-size="12" fill="#2a2620" text-anchor="middle" font-weight="600">사전수준 중</text><rect x="459.0" y="83.0" width="40" height="172.0" rx="4" fill="#b88a5e"/><text x="479.0" y="78.0" font-family="'Malgun Gothic','Pretendard','Noto Sans KR',sans-serif" font-size="10.5" fill="#2a2620" text-anchor="middle" font-weight="700">4.3</text><rect x="505.0" y="87.0" width="40" height="168.0" rx="4" fill="#5a7d6b"/><text x="525.0" y="82.0" font-family="'Malgun Gothic','Pretendard','Noto Sans KR',sans-serif" font-size="10.5" fill="#2a2620" text-anchor="middle" font-weight="700">4.2</text><rect x="551.0" y="87.0" width="40" height="168.0" rx="4" fill="#4a6b85"/><text x="571.0" y="82.0" font-family="'Malgun Gothic','Pretendard','Noto Sans KR',sans-serif" font-size="10.5" fill="#2a2620" text-anchor="middle" font-weight="700">4.2</text><text x="525.0" y="275.0" font-family="'Malgun Gothic','Pretendard','Noto Sans KR',sans-serif" font-size="12" fill="#2a2620" text-anchor="middle" font-weight="600">사전수준 상</text><rect x="230" y="290" width="13" height="13" rx="3" fill="#b88a5e"/><text x="249.0" y="301.0" font-family="'Malgun Gothic','Pretendard','Noto Sans KR',sans-serif" font-size="12" fill="#8a8275" text-anchor="start" font-weight="400">종합</text><rect x="340" y="290" width="13" height="13" rx="3" fill="#5a7d6b"/><text x="359.0" y="301.0" font-family="'Malgun Gothic','Pretendard','Noto Sans KR',sans-serif" font-size="12" fill="#8a8275" text-anchor="start" font-weight="400">학습효과</text><rect x="450" y="290" width="13" height="13" rx="3" fill="#4a6b85"/><text x="469.0" y="301.0" font-family="'Malgun Gothic','Pretendard','Noto Sans KR',sans-serif" font-size="12" fill="#8a8275" text-anchor="start" font-weight="400">정확성</text></svg>