<svg xmlns="http://www.w3.org/2000/svg" viewBox="0 0 700 240" width="100%" role="img"><rect x="0" y="0" width="700" height="240" rx="14" fill="#ffffff"/><text x="20.0" y="30.0" font-family="'Malgun Gothic','Pretendard','Noto Sans KR',sans-serif" font-size="14" fill="#2a2620" text-anchor="start" font-weight="700">시간대별 사용 (메시지 수) · 예시</text><line x1="40" y1="190" x2="668" y2="190" stroke="#e8e1d3"/><rect x="48.4" y="190.0" width="17.2" height="0.0" rx="2" fill="#4a6b85"/><text x="57.0" y="206.0" font-family="'Malgun Gothic','Pretendard','Noto Sans KR',sans-serif" font-size="9.5" fill="#8a8275" text-anchor="middle" font-weight="400">0</text><rect x="74.4" y="190.0" width="17.2" height="0.0" rx="2" fill="#4a6b85"/><rect x="100.4" y="190.0" width="17.2" height="0.0" rx="2" fill="#4a6b85"/><rect x="126.4" y="184.6" width="17.2" height="5.4" rx="2" fill="#4a6b85"/><text x="135.0" y="206.0" font-family="'Malgun Gothic','Pretendard','Noto Sans KR',sans-serif" font-size="9.5" fill="#8a8275" text-anchor="middle" font-weight="400">3</text><rect x="152.4" y="190.0" width="17.2" height="0.0" rx="2" fill="#4a6b85"/><rect x="178.4" y="179.2" width="17.2" height="10.8" rx="2" fill="#4a6b85"/><rect x="204.4" y="173.8" width="17.2" height="16.2" rx="2" fill="#4a6b85"/><text x="213.0" y="206.0" font-family="'Malgun Gothic','Pretendard','Noto Sans KR',sans-serif" font-size="9.5" fill="#8a8275" text-anchor="middle" font-weight="400">6</text><rect x="230.4" y="163.1" width="17.2" height="26.9" rx="2" fill="#4a6b85"/><rect x="256.4" y="146.9" width="17.2" height="43.1" rx="2" fill="#4a6b85"/><rect x="282.4" y="125.4" width="17.2" height="64.6" rx="2" fill="#4a6b85"/><text x="291.0" y="206.0" font-family="'Malgun Gothic','Pretendard','Noto Sans KR',sans-serif" font-size="9.5" fill="#8a8275" text-anchor="middle" font-weight="400">9</text><rect x="308.4" y="109.2" width="17.2" height="80.8" rx="2" fill="#4a6b85"/><rect x="334.4" y="93.1" width="17.2" height="96.9" rx="2" fill="#4a6b85"/><rect x="360.4" y="114.6" width="17.2" height="75.4" rx="2" fill="#4a6b85"/><text x="369.0" y="206.0" font-family="'Malgun Gothic','Pretendard','Noto Sans KR',sans-serif" font-size="9.5" fill="#8a8275" text-anchor="middle" font-weight="400">12</text><rect x="386.4" y="103.8" width="17.2" height="86.2" rx="2" fill="#4a6b85"/><rect x="412.4" y="71.5" width="17.2" height="118.5" rx="2" fill="#4a6b85"/><rect x="438.4" y="82.3" width="17.2" height="107.7" rx="2" fill="#4a6b85"/><text x="447.0" y="206.0" font-family="'Malgun Gothic','Pretendard','Noto Sans KR',sans-serif" font-size="9.5" fill="#8a8275" text-anchor="middle" font-weight="400">15</text><rect x="464.4" y="98.5" width="17.2" height="91.5" rx="2" fill="#4a6b85"/><rect x="490.4" y="120.0" width="17.2" height="70.0" rx="2" fill="#4a6b85"/><rect x="516.4" y="109.2" width="17.2" height="80.8" rx="2" fill="#4a6b85"/><text x="525.0" y="206.0" font-family="'Malgun Gothic','Pretendard','Noto Sans KR',sans-serif" font-size="9.5" fill="#8a8275" text-anchor="middle" font-weight="400">18</text><rect x="542.4" y="87.7" width="17.2" height="102.3" rx="2" fill="#4a6b85"/><rect x="568.4" y="60.8" width="17.2" height="129.2" rx="2" fill="#4a6b85"/><rect x="594.4" y="76.9" width="17.2" height="113.1" rx="2" fill="#4a6b85"/><text x="603.0" y="206.0" font-family="'Malgun Gothic','Pretendard','Noto Sans KR',sans-serif" font-size="9.5" fill="#8a8275" text-anchor="middle" font-weight="400">21</text><rect x="620.4" y="130.8" width="17.2" height="59.2" rx="2" fill="#4a6b85"/><rect x="646.4" y="168.5" width="17.2" height="21.5" rx="2" fill="#4a6b85"/><text x="354.0" y="222.0" font-family="'Malgun Gothic','Pretendard','Noto Sans KR',sans-serif" font-size="10" fill="#8a8275" text-anchor="middle" font-weight="400">시 (0–23시)</text></svg>