<svg xmlns="http://www.w3.org/2000/svg" viewBox="0 0 700 330" width="100%" role="img"><rect x="0" y="0" width="700" height="330" rx="14" fill="#ffffff"/><text x="20.0" y="30.0" font-family="'Malgun Gothic','Pretendard','Noto Sans KR',sans-serif" font-size="14" fill="#2a2620" text-anchor="start" font-weight="700">모드 사용 분포 (%) · 예시</text><text x="185.0" y="75.0" font-family="'Malgun Gothic','Pretendard','Noto Sans KR',sans-serif" font-size="13" fill="#2a2620" text-anchor="middle" font-weight="700">주 사용 모드</text><circle cx="185" cy="165" r="72" fill="none" stroke="#b88a5e" stroke-width="30" stroke-dasharray="203.58 248.81" stroke-dashoffset="-0.00" transform="rotate(-90 185 165)"/><circle cx="185" cy="165" r="72" fill="none" stroke="#5a7d6b" stroke-width="30" stroke-dasharray="144.76 307.62" stroke-dashoffset="-203.58" transform="rotate(-90 185 165)"/><circle cx="185" cy="165" r="72" fill="none" stroke="#4a6b85" stroke-width="30" stroke-dasharray="104.05 348.34" stroke-dashoffset="-348.34" transform="rotate(-90 185 165)"/><text x="515.0" y="75.0" font-family="'Malgun Gothic','Pretendard','Noto Sans KR',sans-serif" font-size="13" fill="#2a2620" text-anchor="middle" font-weight="700">가장 도움된 모드</text><circle cx="515" cy="165" r="72" fill="none" stroke="#b88a5e" stroke-width="30" stroke-dasharray="235.24 217.15" stroke-dashoffset="-0.00" transform="rotate(-90 515 165)"/><circle cx="515" cy="165" r="72" fill="none" stroke="#5a7d6b" stroke-width="30" stroke-dasharray="126.67 325.72" stroke-dashoffset="-235.24" transform="rotate(-90 515 165)"/><circle cx="515" cy="165" r="72" fill="none" stroke="#4a6b85" stroke-width="30" stroke-dasharray="90.48 361.91" stroke-dashoffset="-361.91" transform="rotate(-90 515 165)"/><rect x="250" y="280" width="13" height="13" rx="3" fill="#b88a5e"/><text x="269.0" y="291.0" font-family="'Malgun Gothic','Pretendard','Noto Sans KR',sans-serif" font-size="12" fill="#8a8275" text-anchor="start" font-weight="400">FTF 아바타</text><rect x="360" y="280" width="13" height="13" rx="3" fill="#5a7d6b"/><text x="379.0" y="291.0" font-family="'Malgun Gothic','Pretendard','Noto Sans KR',sans-serif" font-size="12" fill="#8a8275" text-anchor="start" font-weight="400">STS 음성</text><rect x="470" y="280" width="13" height="13" rx="3" fill="#4a6b85"/><text x="489.0" y="291.0" font-family="'Malgun Gothic','Pretendard','Noto Sans KR',sans-serif" font-size="12" fill="#8a8275" text-anchor="start" font-weight="400">TTT 텍스트</text></svg>