<svg xmlns="http://www.w3.org/2000/svg" viewBox="0 0 700 300" width="100%" role="img"><rect x="0" y="0" width="700" height="300" rx="14" fill="#ffffff"/><text x="20.0" y="30.0" font-family="'Malgun Gothic','Pretendard','Noto Sans KR',sans-serif" font-size="14" fill="#2a2620" text-anchor="start" font-weight="700">구인별 평균 (5점 척도) · 예시</text><line x1="308.0" y1="52" x2="308.0" y2="270" stroke="#e8e1d3" stroke-width="1"/><text x="308.0" y="288.0" font-family="'Malgun Gothic','Pretendard','Noto Sans KR',sans-serif" font-size="10" fill="#8a8275" text-anchor="middle" font-weight="400">1</text><line x1="386.0" y1="52" x2="386.0" y2="270" stroke="#e8e1d3" stroke-width="1"/><text x="386.0" y="288.0" font-family="'Malgun Gothic','Pretendard','Noto Sans KR',sans-serif" font-size="10" fill="#8a8275" text-anchor="middle" font-weight="400">2</text><line x1="464.0" y1="52" x2="464.0" y2="270" stroke="#e8e1d3" stroke-width="1"/><text x="464.0" y="288.0" font-family="'Malgun Gothic','Pretendard','Noto Sans KR',sans-serif" font-size="10" fill="#8a8275" text-anchor="middle" font-weight="400">3</text><line x1="542.0" y1="52" x2="542.0" y2="270" stroke="#e8e1d3" stroke-width="1"/><text x="542.0" y="288.0" font-family="'Malgun Gothic','Pretendard','Noto Sans KR',sans-serif" font-size="10" fill="#8a8275" text-anchor="middle" font-weight="400">4</text><line x1="620.0" y1="52" x2="620.0" y2="270" stroke="#e8e1d3" stroke-width="1"/><text x="620.0" y="288.0" font-family="'Malgun Gothic','Pretendard','Noto Sans KR',sans-serif" font-size="10" fill="#8a8275" text-anchor="middle" font-weight="400">5</text><text x="20.0" y="82.0" font-family="'Malgun Gothic','Pretendard','Noto Sans KR',sans-serif" font-size="12.5" fill="#2a2620" text-anchor="start" font-weight="600">A. 퀴즈–챗봇 연동</text><rect x="230" y="70" width="390" height="16" rx="8" fill="#f5f1e8"/><rect x="230" y="70" width="318.2" height="16" rx="8" fill="#5a7d6b"/><text x="556.2" y="83.0" font-family="'Malgun Gothic','Pretendard','Noto Sans KR',sans-serif" font-size="12" fill="#2a2620" text-anchor="start" font-weight="700">4.08</text><text x="20.0" y="117.0" font-family="'Malgun Gothic','Pretendard','Noto Sans KR',sans-serif" font-size="12.5" fill="#2a2620" text-anchor="start" font-weight="600">B. 멀티모달 인터랙션</text><rect x="230" y="105" width="390" height="16" rx="8" fill="#f5f1e8"/><rect x="230" y="105" width="305.8" height="16" rx="8" fill="#b88a5e"/><text x="543.8" y="118.0" font-family="'Malgun Gothic','Pretendard','Noto Sans KR',sans-serif" font-size="12" fill="#2a2620" text-anchor="start" font-weight="700">3.92</text><text x="20.0" y="152.0" font-family="'Malgun Gothic','Pretendard','Noto Sans KR',sans-serif" font-size="12.5" fill="#2a2620" text-anchor="start" font-weight="600">C. 교수자 실재감</text><rect x="230" y="140" width="390" height="16" rx="8" fill="#f5f1e8"/><rect x="230" y="140" width="336.2" height="16" rx="8" fill="#5a7d6b"/><text x="574.2" y="153.0" font-family="'Malgun Gothic','Pretendard','Noto Sans KR',sans-serif" font-size="12" fill="#2a2620" text-anchor="start" font-weight="700">4.31</text><text x="20.0" y="187.0" font-family="'Malgun Gothic','Pretendard','Noto Sans KR',sans-serif" font-size="12.5" fill="#2a2620" text-anchor="start" font-weight="600">D. 정확성·안전감</text><rect x="230" y="175" width="390" height="16" rx="8" fill="#f5f1e8"/><rect x="230" y="175" width="315.9" height="16" rx="8" fill="#5a7d6b"/><text x="553.9" y="188.0" font-family="'Malgun Gothic','Pretendard','Noto Sans KR',sans-serif" font-size="12" fill="#2a2620" text-anchor="start" font-weight="700">4.05</text><text x="20.0" y="222.0" font-family="'Malgun Gothic','Pretendard','Noto Sans KR',sans-serif" font-size="12.5" fill="#2a2620" text-anchor="start" font-weight="600">E. 학습몰입·호기심</text><rect x="230" y="210" width="390" height="16" rx="8" fill="#f5f1e8"/><rect x="230" y="210" width="299.5" height="16" rx="8" fill="#b88a5e"/><text x="537.5" y="223.0" font-family="'Malgun Gothic','Pretendard','Noto Sans KR',sans-serif" font-size="12" fill="#2a2620" text-anchor="start" font-weight="700">3.84</text><text x="20.0" y="257.0" font-family="'Malgun Gothic','Pretendard','Noto Sans KR',sans-serif" font-size="12.5" fill="#2a2620" text-anchor="start" font-weight="600">F. 인지된 학습효과</text><rect x="230" y="245" width="390" height="16" rx="8" fill="#f5f1e8"/><rect x="230" y="245" width="326.8" height="16" rx="8" fill="#5a7d6b"/><text x="564.8" y="258.0" font-family="'Malgun Gothic','Pretendard','Noto Sans KR',sans-serif" font-size="12" fill="#2a2620" text-anchor="start" font-weight="700">4.19</text></svg>