<svg xmlns="http://www.w3.org/2000/svg" viewBox="0 0 720 240" width="100%" role="img"><rect x="0" y="0" width="720" height="240" rx="14" fill="#ffffff"/><text x="20.0" y="30.0" font-family="'Malgun Gothic','Pretendard','Noto Sans KR',sans-serif" font-size="14" fill="#2a2620" text-anchor="start" font-weight="700">시간대별 사용 (메시지 수)</text><line x1="40" y1="190" x2="690" y2="190" stroke="#e8e1d3"/><text x="34.0" y="194.0" font-family="'Malgun Gothic','Pretendard','Noto Sans KR',sans-serif" font-size="9" fill="#8a8275" text-anchor="end" font-weight="400">0</text><text x="34.0" y="166.0" font-family="'Malgun Gothic','Pretendard','Noto Sans KR',sans-serif" font-size="9" fill="#8a8275" text-anchor="end" font-weight="400">10</text><text x="34.0" y="138.0" font-family="'Malgun Gothic','Pretendard','Noto Sans KR',sans-serif" font-size="9" fill="#8a8275" text-anchor="end" font-weight="400">20</text><text x="34.0" y="110.0" font-family="'Malgun Gothic','Pretendard','Noto Sans KR',sans-serif" font-size="9" fill="#8a8275" text-anchor="end" font-weight="400">30</text><text x="34.0" y="82.0" font-family="'Malgun Gothic','Pretendard','Noto Sans KR',sans-serif" font-size="9" fill="#8a8275" text-anchor="end" font-weight="400">40</text><text x="34.0" y="54.0" font-family="'Malgun Gothic','Pretendard','Noto Sans KR',sans-serif" font-size="9" fill="#8a8275" text-anchor="end" font-weight="400">50</text><rect x="48.6" y="184.4" width="17.8" height="5.6" rx="2" fill="#4a6b85"/><text x="57.5" y="206.0" font-family="'Malgun Gothic','Pretendard','Noto Sans KR',sans-serif" font-size="9.5" fill="#8a8275" text-anchor="middle" font-weight="400">0</text><rect x="75.5" y="190.0" width="17.8" height="0.0" rx="2" fill="#4a6b85"/><rect x="102.4" y="190.0" width="17.8" height="0.0" rx="2" fill="#4a6b85"/><rect x="129.3" y="190.0" width="17.8" height="0.0" rx="2" fill="#4a6b85"/><text x="138.2" y="206.0" font-family="'Malgun Gothic','Pretendard','Noto Sans KR',sans-serif" font-size="9.5" fill="#8a8275" text-anchor="middle" font-weight="400">3</text><rect x="156.2" y="190.0" width="17.8" height="0.0" rx="2" fill="#4a6b85"/><rect x="183.2" y="190.0" width="17.8" height="0.0" rx="2" fill="#4a6b85"/><rect x="210.1" y="190.0" width="17.8" height="0.0" rx="2" fill="#4a6b85"/><text x="219.0" y="206.0" font-family="'Malgun Gothic','Pretendard','Noto Sans KR',sans-serif" font-size="9.5" fill="#8a8275" text-anchor="middle" font-weight="400">6</text><rect x="237.0" y="190.0" width="17.8" height="0.0" rx="2" fill="#4a6b85"/><rect x="263.9" y="187.2" width="17.8" height="2.8" rx="2" fill="#4a6b85"/><rect x="290.8" y="50.0" width="17.8" height="140.0" rx="2" fill="#4a6b85"/><text x="299.7" y="206.0" font-family="'Malgun Gothic','Pretendard','Noto Sans KR',sans-serif" font-size="9.5" fill="#8a8275" text-anchor="middle" font-weight="400">9</text><rect x="317.7" y="103.2" width="17.8" height="86.8" rx="2" fill="#4a6b85"/><rect x="344.7" y="142.4" width="17.8" height="47.6" rx="2" fill="#4a6b85"/><rect x="371.6" y="156.4" width="17.8" height="33.6" rx="2" fill="#4a6b85"/><text x="380.5" y="206.0" font-family="'Malgun Gothic','Pretendard','Noto Sans KR',sans-serif" font-size="9.5" fill="#8a8275" text-anchor="middle" font-weight="400">12</text><rect x="398.5" y="181.6" width="17.8" height="8.4" rx="2" fill="#4a6b85"/><rect x="425.4" y="187.2" width="17.8" height="2.8" rx="2" fill="#4a6b85"/><rect x="452.3" y="159.2" width="17.8" height="30.8" rx="2" fill="#4a6b85"/><text x="461.2" y="206.0" font-family="'Malgun Gothic','Pretendard','Noto Sans KR',sans-serif" font-size="9.5" fill="#8a8275" text-anchor="middle" font-weight="400">15</text><rect x="479.2" y="164.8" width="17.8" height="25.2" rx="2" fill="#4a6b85"/><rect x="506.2" y="184.4" width="17.8" height="5.6" rx="2" fill="#4a6b85"/><rect x="533.1" y="176.0" width="17.8" height="14.0" rx="2" fill="#4a6b85"/><text x="542.0" y="206.0" font-family="'Malgun Gothic','Pretendard','Noto Sans KR',sans-serif" font-size="9.5" fill="#8a8275" text-anchor="middle" font-weight="400">18</text><rect x="560.0" y="78.0" width="17.8" height="112.0" rx="2" fill="#4a6b85"/><rect x="586.9" y="72.4" width="17.8" height="117.6" rx="2" fill="#4a6b85"/><rect x="613.8" y="128.4" width="17.8" height="61.6" rx="2" fill="#4a6b85"/><text x="622.7" y="206.0" font-family="'Malgun Gothic','Pretendard','Noto Sans KR',sans-serif" font-size="9.5" fill="#8a8275" text-anchor="middle" font-weight="400">21</text><rect x="640.7" y="150.8" width="17.8" height="39.2" rx="2" fill="#4a6b85"/><rect x="667.7" y="164.8" width="17.8" height="25.2" rx="2" fill="#4a6b85"/><text x="365.0" y="222.0" font-family="'Malgun Gothic','Pretendard','Noto Sans KR',sans-serif" font-size="10" fill="#8a8275" text-anchor="middle" font-weight="400">시 (0–23시)</text></svg>