<svg xmlns="http://www.w3.org/2000/svg" viewBox="0 0 720 300" width="100%" role="img"><rect x="0" y="0" width="720" height="300" rx="14" fill="#ffffff"/><text x="20.0" y="30.0" font-family="'Malgun Gothic','Pretendard','Noto Sans KR',sans-serif" font-size="14" fill="#2a2620" text-anchor="start" font-weight="700">일자별 사용 (세션 · 활성 사용자)</text><line x1="40" y1="235" x2="700" y2="235" stroke="#e8e1d3"/><text x="34.0" y="239.0" font-family="'Malgun Gothic','Pretendard','Noto Sans KR',sans-serif" font-size="9.5" fill="#8a8275" text-anchor="end" font-weight="400">0</text><line x1="40" y1="235.0" x2="700" y2="235.0" stroke="#e8e1d3" stroke-width="0.7"/><text x="34.0" y="197.9" font-family="'Malgun Gothic','Pretendard','Noto Sans KR',sans-serif" font-size="9.5" fill="#8a8275" text-anchor="end" font-weight="400">8</text><line x1="40" y1="193.9" x2="700" y2="193.9" stroke="#e8e1d3" stroke-width="0.7"/><text x="34.0" y="156.7" font-family="'Malgun Gothic','Pretendard','Noto Sans KR',sans-serif" font-size="9.5" fill="#8a8275" text-anchor="end" font-weight="400">16</text><line x1="40" y1="152.7" x2="700" y2="152.7" stroke="#e8e1d3" stroke-width="0.7"/><text x="34.0" y="115.6" font-family="'Malgun Gothic','Pretendard','Noto Sans KR',sans-serif" font-size="9.5" fill="#8a8275" text-anchor="end" font-weight="400">24</text><line x1="40" y1="111.6" x2="700" y2="111.6" stroke="#e8e1d3" stroke-width="0.7"/><text x="34.0" y="74.4" font-family="'Malgun Gothic','Pretendard','Noto Sans KR',sans-serif" font-size="9.5" fill="#8a8275" text-anchor="end" font-weight="400">32</text><line x1="40" y1="70.4" x2="700" y2="70.4" stroke="#e8e1d3" stroke-width="0.7"/><rect x="51.2" y="188.7" width="11.0" height="46.3" rx="2" fill="#b88a5e"/><rect x="64.2" y="235.0" width="11.0" height="0.0" rx="2" fill="#5a7d6b"/><text x="63.2" y="250.0" font-family="'Malgun Gothic','Pretendard','Noto Sans KR',sans-serif" font-size="8.5" fill="#8a8275" text-anchor="middle" font-weight="400">5/18</text><rect x="85.6" y="152.7" width="11.0" height="82.3" rx="2" fill="#b88a5e"/><rect x="98.6" y="209.3" width="11.0" height="25.7" rx="2" fill="#5a7d6b"/><rect x="120.1" y="199.0" width="11.0" height="36.0" rx="2" fill="#b88a5e"/><rect x="133.1" y="219.6" width="11.0" height="15.4" rx="2" fill="#5a7d6b"/><text x="132.1" y="250.0" font-family="'Malgun Gothic','Pretendard','Noto Sans KR',sans-serif" font-size="8.5" fill="#8a8275" text-anchor="middle" font-weight="400">5/20</text><rect x="154.5" y="219.6" width="11.0" height="15.4" rx="2" fill="#b88a5e"/><rect x="167.5" y="229.9" width="11.0" height="5.1" rx="2" fill="#5a7d6b"/><rect x="188.9" y="224.7" width="11.0" height="10.3" rx="2" fill="#b88a5e"/><rect x="201.9" y="229.9" width="11.0" height="5.1" rx="2" fill="#5a7d6b"/><text x="200.9" y="250.0" font-family="'Malgun Gothic','Pretendard','Noto Sans KR',sans-serif" font-size="8.5" fill="#8a8275" text-anchor="middle" font-weight="400">5/22</text><rect x="223.3" y="229.9" width="11.0" height="5.1" rx="2" fill="#b88a5e"/><rect x="236.3" y="229.9" width="11.0" height="5.1" rx="2" fill="#5a7d6b"/><rect x="257.7" y="224.7" width="11.0" height="10.3" rx="2" fill="#b88a5e"/><rect x="270.7" y="235.0" width="11.0" height="0.0" rx="2" fill="#5a7d6b"/><text x="269.7" y="250.0" font-family="'Malgun Gothic','Pretendard','Noto Sans KR',sans-serif" font-size="8.5" fill="#8a8275" text-anchor="middle" font-weight="400">5/26</text><rect x="292.2" y="163.0" width="11.0" height="72.0" rx="2" fill="#b88a5e"/><rect x="305.2" y="229.9" width="11.0" height="5.1" rx="2" fill="#5a7d6b"/><rect x="326.6" y="60.1" width="11.0" height="174.9" rx="2" fill="#b88a5e"/><rect x="339.6" y="178.4" width="11.0" height="56.6" rx="2" fill="#5a7d6b"/><text x="338.6" y="250.0" font-family="'Malgun Gothic','Pretendard','Noto Sans KR',sans-serif" font-size="8.5" fill="#8a8275" text-anchor="middle" font-weight="400">5/28</text><rect x="361.0" y="214.4" width="11.0" height="20.6" rx="2" fill="#b88a5e"/><rect x="374.0" y="214.4" width="11.0" height="20.6" rx="2" fill="#5a7d6b"/><rect x="395.4" y="204.1" width="11.0" height="30.9" rx="2" fill="#b88a5e"/><rect x="408.4" y="229.9" width="11.0" height="5.1" rx="2" fill="#5a7d6b"/><text x="407.4" y="250.0" font-family="'Malgun Gothic','Pretendard','Noto Sans KR',sans-serif" font-size="8.5" fill="#8a8275" text-anchor="middle" font-weight="400">5/31</text><rect x="429.8" y="229.9" width="11.0" height="5.1" rx="2" fill="#b88a5e"/><rect x="442.8" y="229.9" width="11.0" height="5.1" rx="2" fill="#5a7d6b"/><rect x="464.3" y="214.4" width="11.0" height="20.6" rx="2" fill="#b88a5e"/><rect x="477.3" y="235.0" width="11.0" height="0.0" rx="2" fill="#5a7d6b"/><text x="476.3" y="250.0" font-family="'Malgun Gothic','Pretendard','Noto Sans KR',sans-serif" font-size="8.5" fill="#8a8275" text-anchor="middle" font-weight="400">6/4</text><rect x="498.7" y="142.4" width="11.0" height="92.6" rx="2" fill="#b88a5e"/><rect x="511.7" y="224.7" width="11.0" height="10.3" rx="2" fill="#5a7d6b"/><rect x="533.1" y="70.4" width="11.0" height="164.6" rx="2" fill="#b88a5e"/><rect x="546.1" y="235.0" width="11.0" height="0.0" rx="2" fill="#5a7d6b"/><text x="545.1" y="250.0" font-family="'Malgun Gothic','Pretendard','Noto Sans KR',sans-serif" font-size="8.5" fill="#8a8275" text-anchor="middle" font-weight="400">6/9</text><rect x="567.5" y="137.3" width="11.0" height="97.7" rx="2" fill="#b88a5e"/><rect x="580.5" y="229.9" width="11.0" height="5.1" rx="2" fill="#5a7d6b"/><rect x="601.9" y="229.9" width="11.0" height="5.1" rx="2" fill="#b88a5e"/><rect x="614.9" y="235.0" width="11.0" height="0.0" rx="2" fill="#5a7d6b"/><text x="613.9" y="250.0" font-family="'Malgun Gothic','Pretendard','Noto Sans KR',sans-serif" font-size="8.5" fill="#8a8275" text-anchor="middle" font-weight="400">6/11</text><rect x="636.4" y="229.9" width="11.0" height="5.1" rx="2" fill="#b88a5e"/><rect x="649.4" y="229.9" width="11.0" height="5.1" rx="2" fill="#5a7d6b"/><rect x="670.8" y="229.9" width="11.0" height="5.1" rx="2" fill="#b88a5e"/><rect x="683.8" y="229.9" width="11.0" height="5.1" rx="2" fill="#5a7d6b"/><text x="682.8" y="250.0" font-family="'Malgun Gothic','Pretendard','Noto Sans KR',sans-serif" font-size="8.5" fill="#8a8275" text-anchor="middle" font-weight="400">6/18</text><rect x="300" y="270" width="13" height="13" rx="3" fill="#b88a5e"/><text x="319.0" y="281.0" font-family="'Malgun Gothic','Pretendard','Noto Sans KR',sans-serif" font-size="12" fill="#8a8275" text-anchor="start" font-weight="400">세션</text><rect x="420" y="270" width="13" height="13" rx="3" fill="#5a7d6b"/><text x="439.0" y="281.0" font-family="'Malgun Gothic','Pretendard','Noto Sans KR',sans-serif" font-size="12" fill="#8a8275" text-anchor="start" font-weight="400">활성 사용자</text></svg>