<svg xmlns="http://www.w3.org/2000/svg" viewBox="0 0 700 300" width="100%" role="img"><rect x="0" y="0" width="700" height="300" rx="14" fill="#ffffff"/><text x="20.0" y="30.0" font-family="'Malgun Gothic','Pretendard','Noto Sans KR',sans-serif" font-size="14" fill="#2a2620" text-anchor="start" font-weight="700">일자별 사용 · 예시</text><line x1="44" y1="235" x2="660" y2="235" stroke="#e8e1d3"/><rect x="62.5" y="167.5" width="16" height="67.5" rx="3" fill="#b88a5e"/><rect x="82.5" y="190.0" width="16" height="45.0" rx="3" fill="#5a7d6b"/><text x="80.5" y="251.0" font-family="'Malgun Gothic','Pretendard','Noto Sans KR',sans-serif" font-size="10" fill="#8a8275" text-anchor="middle" font-weight="400">6/02</text><rect x="123.5" y="133.8" width="16" height="101.2" rx="3" fill="#b88a5e"/><rect x="143.5" y="173.1" width="16" height="61.9" rx="3" fill="#5a7d6b"/><text x="141.5" y="251.0" font-family="'Malgun Gothic','Pretendard','Noto Sans KR',sans-serif" font-size="10" fill="#8a8275" text-anchor="middle" font-weight="400">6/03</text><rect x="184.5" y="150.6" width="16" height="84.4" rx="3" fill="#b88a5e"/><rect x="204.5" y="178.8" width="16" height="56.2" rx="3" fill="#5a7d6b"/><text x="202.5" y="251.0" font-family="'Malgun Gothic','Pretendard','Noto Sans KR',sans-serif" font-size="10" fill="#8a8275" text-anchor="middle" font-weight="400">6/04</text><rect x="245.5" y="111.2" width="16" height="123.8" rx="3" fill="#b88a5e"/><rect x="265.5" y="150.6" width="16" height="84.4" rx="3" fill="#5a7d6b"/><text x="263.5" y="251.0" font-family="'Malgun Gothic','Pretendard','Noto Sans KR',sans-serif" font-size="10" fill="#8a8275" text-anchor="middle" font-weight="400">6/05</text><rect x="306.5" y="184.4" width="16" height="50.6" rx="3" fill="#b88a5e"/><rect x="326.5" y="201.2" width="16" height="33.8" rx="3" fill="#5a7d6b"/><text x="324.5" y="251.0" font-family="'Malgun Gothic','Pretendard','Noto Sans KR',sans-serif" font-size="10" fill="#8a8275" text-anchor="middle" font-weight="400">6/06</text><rect x="367.5" y="94.4" width="16" height="140.6" rx="3" fill="#b88a5e"/><rect x="387.5" y="139.4" width="16" height="95.6" rx="3" fill="#5a7d6b"/><text x="385.5" y="251.0" font-family="'Malgun Gothic','Pretendard','Noto Sans KR',sans-serif" font-size="10" fill="#8a8275" text-anchor="middle" font-weight="400">6/07</text><rect x="428.5" y="66.2" width="16" height="168.8" rx="3" fill="#b88a5e"/><rect x="448.5" y="122.5" width="16" height="112.5" rx="3" fill="#5a7d6b"/><text x="446.5" y="251.0" font-family="'Malgun Gothic','Pretendard','Noto Sans KR',sans-serif" font-size="10" fill="#8a8275" text-anchor="middle" font-weight="400">6/08</text><rect x="489.5" y="116.9" width="16" height="118.1" rx="3" fill="#b88a5e"/><rect x="509.5" y="156.2" width="16" height="78.8" rx="3" fill="#5a7d6b"/><text x="507.5" y="251.0" font-family="'Malgun Gothic','Pretendard','Noto Sans KR',sans-serif" font-size="10" fill="#8a8275" text-anchor="middle" font-weight="400">6/09</text><rect x="550.5" y="139.4" width="16" height="95.6" rx="3" fill="#b88a5e"/><rect x="570.5" y="167.5" width="16" height="67.5" rx="3" fill="#5a7d6b"/><text x="568.5" y="251.0" font-family="'Malgun Gothic','Pretendard','Noto Sans KR',sans-serif" font-size="10" fill="#8a8275" text-anchor="middle" font-weight="400">6/10</text><rect x="611.5" y="156.2" width="16" height="78.8" rx="3" fill="#b88a5e"/><rect x="631.5" y="184.4" width="16" height="50.6" rx="3" fill="#5a7d6b"/><text x="629.5" y="251.0" font-family="'Malgun Gothic','Pretendard','Noto Sans KR',sans-serif" font-size="10" fill="#8a8275" text-anchor="middle" font-weight="400">6/11</text><rect x="280" y="268" width="13" height="13" rx="3" fill="#b88a5e"/><text x="299.0" y="279.0" font-family="'Malgun Gothic','Pretendard','Noto Sans KR',sans-serif" font-size="12" fill="#8a8275" text-anchor="start" font-weight="400">세션</text><rect x="400" y="268" width="13" height="13" rx="3" fill="#5a7d6b"/><text x="419.0" y="279.0" font-family="'Malgun Gothic','Pretendard','Noto Sans KR',sans-serif" font-size="12" fill="#8a8275" text-anchor="start" font-weight="400">활성 사용자</text></svg>