<svg xmlns="http://www.w3.org/2000/svg" viewBox="0 0 700 340" width="100%" role="img"><rect x="0" y="0" width="700" height="340" rx="14" fill="#ffffff"/><text x="20.0" y="30.0" font-family="'Malgun Gothic','Pretendard','Noto Sans KR',sans-serif" font-size="14" fill="#2a2620" text-anchor="start" font-weight="700">모드 사용 분포</text><text x="185.0" y="65.0" font-family="'Malgun Gothic','Pretendard','Noto Sans KR',sans-serif" font-size="13" fill="#2a2620" text-anchor="middle" font-weight="700">주 사용 모드</text><text x="185.0" y="81.0" font-family="'Malgun Gothic','Pretendard','Noto Sans KR',sans-serif" font-size="11" fill="#8a8275" text-anchor="middle" font-weight="400">n=22</text><circle cx="185" cy="175" r="72" fill="none" stroke="#b88a5e" stroke-width="30" stroke-dasharray="61.69 390.70" stroke-dashoffset="-0.00" transform="rotate(-90 185 175)"/><circle cx="185" cy="175" r="72" fill="none" stroke="#5a7d6b" stroke-width="30" stroke-dasharray="20.56 431.83" stroke-dashoffset="-61.69" transform="rotate(-90 185 175)"/><circle cx="185" cy="175" r="72" fill="none" stroke="#4a6b85" stroke-width="30" stroke-dasharray="370.14 82.25" stroke-dashoffset="-82.25" transform="rotate(-90 185 175)"/><text x="515.0" y="65.0" font-family="'Malgun Gothic','Pretendard','Noto Sans KR',sans-serif" font-size="13" fill="#2a2620" text-anchor="middle" font-weight="700">가장 도움된 모드</text><text x="515.0" y="81.0" font-family="'Malgun Gothic','Pretendard','Noto Sans KR',sans-serif" font-size="11" fill="#8a8275" text-anchor="middle" font-weight="400">n=22</text><circle cx="515" cy="175" r="72" fill="none" stroke="#b88a5e" stroke-width="30" stroke-dasharray="61.69 390.70" stroke-dashoffset="-0.00" transform="rotate(-90 515 175)"/><circle cx="515" cy="175" r="72" fill="none" stroke="#5a7d6b" stroke-width="30" stroke-dasharray="41.13 411.26" stroke-dashoffset="-61.69" transform="rotate(-90 515 175)"/><circle cx="515" cy="175" r="72" fill="none" stroke="#4a6b85" stroke-width="30" stroke-dasharray="349.57 102.82" stroke-dashoffset="-102.82" transform="rotate(-90 515 175)"/><rect x="220" y="290" width="13" height="13" rx="3" fill="#b88a5e"/><text x="239.0" y="301.0" font-family="'Malgun Gothic','Pretendard','Noto Sans KR',sans-serif" font-size="11.5" fill="#8a8275" text-anchor="start" font-weight="400">FTF 아바타 (3/3)</text><rect x="350" y="290" width="13" height="13" rx="3" fill="#5a7d6b"/><text x="369.0" y="301.0" font-family="'Malgun Gothic','Pretendard','Noto Sans KR',sans-serif" font-size="11.5" fill="#8a8275" text-anchor="start" font-weight="400">STS 음성 (1/2)</text><rect x="480" y="290" width="13" height="13" rx="3" fill="#4a6b85"/><text x="499.0" y="301.0" font-family="'Malgun Gothic','Pretendard','Noto Sans KR',sans-serif" font-size="11.5" fill="#8a8275" text-anchor="start" font-weight="400">TTT 텍스트 (18/17)</text></svg>